<svg width="664" height="665" viewBox="0 0 664 665" fill="none" xmlns="http://www.w3.org/2000/svg">
<path opacity="0.2" d="M663.459 504.085V333.877H663.999V331.998H663.459V161.791C663.449 120.049 647.205 79.9474 618.163 49.9658V46.8775H663.459V44.9858H619.475L661.709 2.52078L660.422 1.23396L618.201 43.699V2.1476H616.323V44.9858H613.131C583.581 16.7383 544.283 0.962883 503.404 0.937988H160.042C119.18 0.976116 79.9032 16.7505 50.3661 44.9858H47.162V2.1476H45.2961V43.6604L3.0755 1.19535L1.78868 2.48217L44.0092 44.9472H2.67659V46.826H45.2961V49.9658C16.25 79.9451 0.00579511 120.048 0 161.791V504.085C0.00579511 545.827 16.25 585.93 45.2961 615.909V619.049H2.67659V620.928H43.9706L1.75008 663.393L3.0369 664.68L45.2575 622.215V663.728H47.1234V620.889H50.3275C79.8742 649.134 119.167 664.909 160.042 664.937H503.404C544.27 664.902 583.552 649.128 613.093 620.889H616.284V663.728H618.163V622.215L660.383 664.68L661.67 663.393L619.437 620.928H663.999V619.049H618.163V615.909C647.198 585.923 663.441 545.825 663.459 504.085ZM661.58 504.085C661.577 544.662 646.041 583.698 618.163 613.181V451.904H660.911V450.038H618.163V333.877H661.58V504.085ZM449.525 450.038L448.238 448.751C450.374 446.581 452.446 444.35 454.453 442.06V450.038H449.525ZM454.453 451.917V454.993L451.391 451.917H454.453ZM210.073 450.038V443.282C211.746 445.148 213.471 446.963 215.221 448.751L213.934 450.038H210.073ZM212.068 451.917L210.073 453.899V451.904L212.068 451.917ZM213.934 215.837L215.221 217.124C213.471 218.912 211.746 220.74 210.073 222.593V215.837H213.934ZM210.073 213.958V211.977L212.068 213.971L210.073 213.958ZM454.453 215.837V223.815C452.446 221.525 450.374 219.294 448.238 217.124L449.525 215.837H454.453ZM451.391 213.958L454.453 210.883V213.958H451.391ZM454.453 331.985H450.052C449.857 301.112 437.666 271.524 416.055 249.474L446.938 218.462C449.512 221.096 452.026 223.828 454.479 226.659L454.453 331.985ZM456.319 228.885C480.321 257.894 493.511 294.334 493.637 331.985H456.319V228.885ZM414.729 250.761C436.001 272.447 448 301.558 448.187 331.934H333.981L414.729 250.761ZM332.669 330.544V215.837C362.941 216.048 391.925 228.115 413.404 249.449L332.669 330.544ZM330.79 330.544L250.042 249.359C271.545 228.064 300.528 216.032 330.79 215.837V330.544ZM329.503 331.831H215.272C215.466 301.456 227.464 272.348 248.729 250.658L329.503 331.831ZM329.503 333.71L248.755 414.882C227.49 393.193 215.492 364.084 215.298 333.71H329.503ZM330.79 334.997V450.038C300.512 449.826 271.523 437.754 250.042 416.414L330.79 334.997ZM332.669 334.997L413.404 416.169C391.969 437.601 362.979 449.763 332.669 450.038V334.997ZM333.956 333.71H448.148C447.961 364.086 435.962 393.197 414.691 414.882L333.956 333.71ZM445.587 217.124L414.704 248.149C397.752 231.332 376.09 220.063 352.589 215.837H444.275L445.587 217.124ZM332.669 213.958V170.116C373.451 170.316 412.636 185.99 442.306 213.971L332.669 213.958ZM330.79 213.958H221.153C250.817 185.969 290.006 170.294 330.79 170.103V213.958ZM310.857 215.837C287.349 220.064 265.678 231.332 248.717 248.149L217.833 217.124L219.12 215.837H310.857ZM216.546 218.411L247.43 249.423C225.809 271.466 213.615 301.058 213.432 331.934H210.099V225.437C212.171 223.056 214.32 220.727 216.546 218.475V218.411ZM208.208 331.934H169.77C169.914 293.706 183.523 256.751 208.208 227.56V331.934ZM208.208 333.813V438.187C183.523 408.996 169.914 372.041 169.77 333.813H208.208ZM210.073 333.813H213.406C213.587 364.685 225.781 394.274 247.404 416.311L216.52 447.336C214.294 445.084 212.145 442.755 210.086 440.374L210.073 333.813ZM217.872 448.751L248.755 417.726C265.707 434.537 287.362 445.804 310.857 450.038H219.184L217.872 448.751ZM330.79 451.917V495.772C290.006 495.581 250.817 479.906 221.153 451.917H330.79ZM332.669 451.917H442.306C412.636 479.898 373.451 495.572 332.669 495.772V451.917ZM352.589 450.038C376.099 445.817 397.771 434.548 414.729 417.726L445.613 448.751L444.326 450.038H352.589ZM446.913 447.465L416.029 416.439C437.643 394.397 449.835 364.812 450.027 333.941H454.428V439.268C452.026 442.047 449.521 444.779 446.913 447.465ZM456.319 333.941H493.637C493.511 371.592 480.321 408.032 456.319 437.041V333.941ZM495.554 332.063C495.411 293.201 481.511 255.645 456.319 226.054V215.837H555.276C573.903 251.725 583.668 291.551 583.753 331.985L495.554 332.063ZM456.319 214.035V209.068L510.597 154.52C527.98 172.126 542.698 192.176 554.285 214.035H456.319ZM456.319 206.417V112.66C475.677 123.752 493.482 137.355 509.272 153.117L456.319 206.417ZM454.453 208.296L448.753 214.035H445.034C414.881 184.857 374.627 168.446 332.669 168.225V79.5884C375.332 79.6821 417.26 90.7046 454.453 111.605V208.296ZM330.79 168.225C288.842 168.423 248.589 184.806 218.425 213.958H214.706L210.073 209.3V110.987C247.008 90.475 288.542 79.6676 330.79 79.5756V168.225ZM208.208 207.434L154.161 153.117C170.252 137.067 188.431 123.255 208.208 112.055V207.434ZM208.208 210.098V213.958H109.122C120.705 192.096 135.424 172.045 152.81 154.443L208.208 210.098ZM208.208 215.85V224.729C182.35 254.5 168.043 292.566 167.891 331.998H79.7056C79.789 291.56 89.5537 251.729 108.183 215.837L208.208 215.85ZM167.891 333.877C168.043 373.309 182.35 411.376 208.208 441.146V450.038H108.183C89.5557 414.15 79.7911 374.324 79.7056 333.89L167.891 333.877ZM208.208 451.904V455.765L152.874 511.394C135.488 493.791 120.77 473.741 109.187 451.878L208.208 451.904ZM208.208 458.441V553.82C188.431 542.62 170.252 528.808 154.161 512.758L208.208 458.441ZM210.073 456.562L214.706 451.904H218.425C248.587 481.061 288.84 497.449 330.79 497.651V586.313C288.542 586.21 247.009 575.398 210.073 554.888V456.562ZM332.669 497.651C374.617 497.45 414.869 481.067 445.034 451.917H448.753L454.453 457.656V554.271C417.259 575.169 375.332 586.195 332.669 586.3V497.651ZM456.319 459.535L509.272 512.771C493.476 528.526 475.672 542.129 456.319 553.228V459.535ZM456.319 456.884V451.917H554.285C542.698 473.777 527.98 493.827 510.597 511.432L456.319 456.884ZM456.319 450.038V439.898C481.511 410.307 495.411 372.752 495.554 333.89H583.753C583.668 374.324 573.903 414.15 555.276 450.038H456.319ZM585.619 333.89H616.284V450.038H557.386C575.862 414.1 585.539 374.287 585.619 333.877V333.89ZM585.619 332.011C585.541 291.597 575.864 251.78 557.386 215.837H616.284V331.985L585.619 332.011ZM556.395 213.984C544.651 191.619 529.664 171.113 511.923 153.13L615.1 49.4511L615.19 49.5283C615.576 49.9272 615.962 50.3519 616.348 50.8151V213.971L556.395 213.984ZM613.685 48.1514L510.597 151.792C494.435 135.66 476.179 121.771 456.319 110.498V46.8646H612.346L613.685 48.1514ZM454.453 109.456C417.202 88.7297 375.298 77.8021 332.669 77.6968V46.8131H454.453V109.456ZM332.669 44.9858V2.81674H454.453V44.9858H332.669ZM330.79 44.9858H210.073V2.81674H330.79V44.9858ZM330.79 46.8646V77.7483C288.576 77.8471 247.064 88.5603 210.073 108.902V46.8646H330.79ZM208.208 109.919C187.938 121.29 169.32 135.383 152.874 151.805L49.7871 48.1643L51.0739 46.8775H208.208V109.919ZM48.333 49.5283L48.4102 49.4511L151.536 153.117C133.787 171.096 118.796 191.603 107.051 213.971H47.162V50.7637C47.6124 50.3519 47.9341 49.9272 48.333 49.5283ZM106.073 215.837C87.5987 251.772 77.9223 291.58 77.8398 331.985H47.162V215.837H106.073ZM77.8398 333.864C77.9183 374.278 87.5948 414.096 106.073 450.038H47.162V333.877L77.8398 333.864ZM107.051 451.891C118.796 474.259 133.787 494.766 151.536 512.745L48.4102 616.424L48.333 616.347C47.9341 615.948 47.5609 615.523 47.162 615.06V451.904L107.051 451.891ZM49.7742 617.724L152.861 514.083C169.311 530.506 187.927 544.602 208.195 555.982V619.036H51.1125L49.7742 617.724ZM210.073 557.025C247.064 577.366 288.576 588.08 330.79 588.178V619.062H210.073V557.025ZM330.79 620.889V663.058H210.073V620.889H330.79ZM332.669 620.889H454.453V663.058H332.669V620.889ZM332.669 619.011V588.127C375.298 588.022 417.202 577.094 454.453 556.368V618.959L332.669 619.011ZM456.319 555.377C476.179 544.104 494.435 530.216 510.597 514.083L613.685 617.724L612.398 619.011H456.319V555.377ZM615.1 616.347L615.01 616.424L511.897 512.758C529.639 494.775 544.625 474.269 556.37 451.904H616.258V615.112L615.1 616.347ZM661.58 161.791V331.998H618.163V215.837H660.911V213.958H618.163V52.7325C646.032 82.2061 661.567 121.227 661.58 161.791ZM610.39 44.9472H456.319V2.81674H503.404C543.114 2.84607 581.34 17.9129 610.39 44.9858V44.9472ZM160.003 2.77814H208.208V44.9472H53.0685C82.1211 17.8902 120.341 2.83755 160.042 2.81674L160.003 2.77814ZM1.86589 504.085V161.791C1.87391 121.212 17.4138 82.1759 45.2961 52.6939V213.932H2.57364V215.837H45.2961V331.985H2.41922V333.864H45.2961V450.038H2.57364V451.917H45.2961V613.156C17.4199 583.68 1.88049 544.654 1.86589 504.085ZM53.0685 620.928H208.208V663.097H160.042C120.331 663.055 82.1092 647.975 53.0685 620.889V620.928ZM503.456 663.097H456.319V620.889H610.39C581.338 647.96 543.114 663.027 503.404 663.058L503.456 663.097Z" fill="url(#paint0_radial_415_11747)"/>
<mask id="mask0_415_11747" style="mask-type:alpha" maskUnits="userSpaceOnUse" x="-13" y="0" width="592" height="665">
<rect x="-12.7969" width="591.785" height="664.938" fill="url(#paint1_linear_415_11747)"/>
</mask>
<g mask="url(#mask0_415_11747)">
<g filter="url(#filter0_b_415_11747)">
<path d="M82.8643 584.71C82.8643 579.582 82.8643 577.019 83.8779 575.067C84.7321 573.423 86.0729 572.082 87.7173 571.228C89.6687 570.214 92.2324 570.214 97.3597 570.214H147.148C152.276 570.214 154.839 570.214 156.791 571.228C158.435 572.082 159.776 573.423 160.63 575.067C161.644 577.019 161.644 579.582 161.644 584.71V634.499C161.644 639.626 161.644 642.19 160.63 644.141C159.776 645.785 158.435 647.126 156.791 647.98C154.839 648.994 152.276 648.994 147.148 648.994H97.3597C92.2324 648.994 89.6687 648.994 87.7173 647.98C86.0729 647.126 84.7321 645.785 83.8779 644.141C82.8643 642.19 82.8643 639.626 82.8643 634.499V584.71Z" fill="white" fill-opacity="0.1"/>
<path d="M147.148 569.745H97.3597H97.3374C94.7926 569.745 92.8539 569.745 91.3087 569.874C89.7534 570.003 88.5549 570.264 87.5012 570.812C85.7711 571.711 84.3605 573.121 83.4618 574.851C82.9144 575.905 82.6528 577.104 82.5236 578.659C82.3953 580.204 82.3953 582.143 82.3953 584.687V584.71V634.499V634.521C82.3953 637.066 82.3953 639.004 82.5236 640.55C82.6528 642.105 82.9144 643.303 83.4618 644.357C84.3605 646.087 85.7711 647.498 87.5012 648.396C88.5549 648.944 89.7534 649.205 91.3087 649.335C92.8538 649.463 94.7924 649.463 97.3371 649.463H97.3597H147.148H147.171C149.716 649.463 151.654 649.463 153.199 649.335C154.755 649.205 155.953 648.944 157.007 648.396C158.737 647.498 160.148 646.087 161.046 644.357C161.594 643.303 161.855 642.105 161.985 640.55C162.113 639.004 162.113 637.066 162.113 634.521V634.499V584.71V584.687C162.113 582.143 162.113 580.204 161.985 578.659C161.855 577.104 161.594 575.905 161.046 574.851C160.148 573.121 158.737 571.711 157.007 570.812C155.953 570.264 154.755 570.003 153.199 569.874C151.654 569.745 149.716 569.745 147.171 569.745H147.148Z" stroke="white" stroke-opacity="0.2" stroke-width="0.937853"/>
</g>
<g clip-path="url(#clip0_415_11747)">
<path d="M98.4551 582.407H146.051L141.722 631.279L122.201 636.802L102.789 631.277L98.4551 582.407ZM137.189 592.409L107.317 592.402L107.8 598.345L130.748 598.349L130.17 604.505H115.12L115.664 610.337H129.676L128.846 618.321L122.251 620.144L115.551 618.308L115.125 613.525H109.21L109.867 622.263L122.253 626.123L134.431 622.655L137.189 592.411V592.409Z" fill="white"/>
</g>
<g filter="url(#filter1_b_415_11747)">
<path d="M359.185 66.2432H309.479C301.709 66.2432 295.411 72.5415 295.411 80.311V130.017C295.411 137.787 301.709 144.085 309.479 144.085H359.185C366.955 144.085 373.253 137.787 373.253 130.017V80.311C373.253 72.5415 366.955 66.2432 359.185 66.2432Z" fill="white" fill-opacity="0.1"/>
<path d="M359.185 65.7742H309.479C301.451 65.7742 294.942 72.2825 294.942 80.311V130.017C294.942 138.046 301.451 144.554 309.479 144.554H359.185C367.214 144.554 373.722 138.046 373.722 130.017V80.311C373.722 72.2826 367.214 65.7742 359.185 65.7742Z" stroke="white" stroke-opacity="0.2" stroke-width="0.937853"/>
</g>
<path d="M347.7 127.057C349.268 129.617 351.308 131.499 354.916 131.499C357.947 131.499 359.883 129.984 359.883 127.891C359.883 125.383 357.894 124.494 354.558 123.035L352.729 122.251C347.451 120.002 343.944 117.185 343.944 111.229C343.944 105.743 348.124 101.567 354.657 101.567C359.307 101.567 362.651 103.186 365.06 107.424L359.364 111.081C358.11 108.832 356.757 107.946 354.657 107.946C352.514 107.946 351.156 109.305 351.156 111.081C351.156 113.275 352.515 114.164 355.654 115.523L357.482 116.306C363.697 118.971 367.206 121.688 367.206 127.797C367.206 134.383 362.033 137.991 355.085 137.991C348.292 137.991 343.903 134.753 341.756 130.51L347.7 127.057ZM321.861 127.691C323.01 129.73 324.055 131.453 326.568 131.453C328.971 131.453 330.487 130.513 330.487 126.857V101.985H337.802V126.956C337.802 134.53 333.361 137.977 326.879 137.977C321.023 137.977 317.631 134.946 315.906 131.296L321.861 127.691Z" fill="white"/>
<g filter="url(#filter2_b_415_11747)">
<rect x="131.038" y="25.6665" width="78.7796" height="78.7796" rx="15.0056" fill="white" fill-opacity="0.1"/>
<rect x="130.569" y="25.1976" width="79.7175" height="79.7175" rx="15.4746" stroke="white" stroke-opacity="0.2" stroke-width="0.937853"/>
</g>
<path d="M170.251 75.8998C186.823 76.1697 200.337 71.5352 200.434 65.5484C200.532 59.5616 187.176 54.4895 170.604 54.2196C154.031 53.9497 140.518 58.5842 140.42 64.571C140.323 70.5579 153.678 75.6299 170.251 75.8998Z" stroke="white" stroke-width="2.73905"/>
<path d="M160.416 70.3146C168.481 84.0287 179.501 92.7918 185.03 89.8876C190.558 86.9834 188.502 73.5117 180.437 59.7977C172.372 46.0837 161.352 37.3206 155.823 40.2248C150.295 43.1289 152.351 56.6006 160.416 70.3146Z" stroke="white" stroke-width="2.73905"/>
<path d="M160.594 59.4744C152.087 72.9185 149.593 86.3161 155.024 89.3988C160.455 92.4814 171.755 84.0818 180.262 70.6377C188.769 57.1935 191.263 43.7959 185.832 40.7133C180.401 37.6306 169.101 46.0303 160.594 59.4744Z" stroke="white" stroke-width="2.73905"/>
<g filter="url(#filter3_b_415_11747)">
<path fill-rule="evenodd" clip-rule="evenodd" d="M181.769 65.3149C180.993 63.7267 180.128 62.1146 179.176 60.4962C178.225 58.8792 177.234 57.3351 176.218 55.8747C174.377 55.714 172.47 55.6142 170.513 55.5823C168.557 55.5505 166.647 55.5882 164.802 55.6888C163.738 57.1153 162.698 58.6263 161.695 60.2115C160.691 61.798 159.774 63.3811 158.946 64.9432C159.722 66.5311 160.587 68.143 161.539 69.7611C162.491 71.3806 163.484 72.9271 164.502 74.3895C166.342 74.55 168.248 74.6497 170.202 74.6815C172.157 74.7134 174.065 74.6758 175.909 74.5753C176.974 73.1468 178.017 71.6335 179.021 70.0458C180.025 68.4595 180.942 66.8767 181.769 65.3149Z" fill="white" fill-opacity="0.2"/>
</g>
<path d="M170.365 70.3479C173.454 70.3982 175.996 68.0701 176.044 65.1479C176.091 62.2258 173.626 59.8162 170.538 59.7659C167.449 59.7156 164.907 62.0437 164.859 64.9658C164.812 67.8879 167.277 70.2976 170.365 70.3479Z" fill="white"/>
<g filter="url(#filter4_b_415_11747)">
<rect x="415.767" y="332.938" width="78.7797" height="78.7797" rx="14.0678" transform="rotate(0.656233 415.767 332.938)" fill="white" fill-opacity="0.1"/>
<rect x="415.303" y="332.464" width="79.7175" height="79.7175" rx="14.5367" transform="rotate(0.656233 415.303 332.464)" stroke="white" stroke-opacity="0.2" stroke-width="0.937853"/>
</g>
<!-- <path d="M441.663 367.843C441.654 368.581 441.727 369.181 441.862 369.622C442.017 370.063 442.211 370.544 442.484 371.066C442.582 371.227 442.62 371.387 442.619 371.527C442.617 371.727 442.494 371.925 442.233 372.122L440.965 372.946C440.784 373.063 440.604 373.121 440.444 373.119C440.245 373.117 440.046 373.015 439.849 372.833C439.573 372.53 439.337 372.208 439.141 371.887C438.945 371.545 438.75 371.163 438.536 370.702C436.958 372.52 434.991 373.416 432.635 373.389C430.959 373.37 429.627 372.876 428.659 371.906C427.692 370.937 427.208 369.654 427.226 368.057C427.246 366.36 427.86 364.99 429.09 363.965C430.319 362.941 431.942 362.441 433.998 362.464C434.677 362.472 435.375 362.54 436.112 362.648C436.85 362.757 437.607 362.925 438.403 363.114L438.42 361.657C438.437 360.14 438.13 359.078 437.518 358.452C436.886 357.826 435.812 357.514 434.275 357.497C433.576 357.489 432.857 357.56 432.116 357.731C431.375 357.903 430.654 358.114 429.952 358.385C429.631 358.521 429.391 358.599 429.251 358.637C429.111 358.675 429.01 358.694 428.931 358.693C428.651 358.69 428.514 358.489 428.519 358.069L428.53 357.091C428.533 356.772 428.576 356.533 428.677 356.394C428.779 356.256 428.96 356.118 429.241 355.982C429.944 355.63 430.786 355.34 431.767 355.112C432.748 354.864 433.787 354.756 434.885 354.768C437.26 354.796 438.991 355.355 440.096 356.445C441.182 357.536 441.722 359.179 441.697 361.375L441.623 367.842L441.663 367.843ZM433.524 370.784C434.182 370.792 434.862 370.68 435.584 370.448C436.305 370.217 436.949 369.785 437.495 369.193C437.819 368.817 438.063 368.4 438.188 367.923C438.313 367.445 438.4 366.867 438.408 366.188L438.417 365.35C437.84 365.204 437.223 365.077 436.585 364.99C435.947 364.902 435.328 364.855 434.71 364.848C433.372 364.833 432.391 365.081 431.726 365.613C431.061 366.144 430.733 366.899 430.722 367.897C430.711 368.835 430.943 369.537 431.436 370.022C431.91 370.526 432.605 370.774 433.524 370.784ZM449.528 373.124C449.169 373.119 448.93 373.057 448.772 372.915C448.614 372.794 448.477 372.513 448.362 372.132L443.847 356.648C443.732 356.247 443.675 355.987 443.677 355.847C443.68 355.528 443.842 355.35 444.162 355.354L446.118 355.376C446.497 355.381 446.756 355.443 446.894 355.585C447.052 355.706 447.169 355.987 447.284 356.368L450.487 369.621L453.752 356.442C453.856 356.044 453.979 355.786 454.14 355.668C454.301 355.55 454.582 355.473 454.941 355.477L456.538 355.496C456.917 355.5 457.176 355.563 457.334 355.704C457.492 355.826 457.629 356.107 457.704 356.487L460.705 369.898L464.312 356.563C464.436 356.165 464.579 355.907 464.72 355.789C464.881 355.671 465.141 355.594 465.501 355.598L467.357 355.62C467.676 355.623 467.854 355.785 467.85 356.124C467.849 356.224 467.828 356.324 467.807 356.443C467.785 356.563 467.744 356.722 467.661 356.941L462.674 372.316C462.549 372.714 462.407 372.972 462.246 373.09C462.085 373.207 461.824 373.284 461.485 373.28L459.768 373.261C459.389 373.256 459.13 373.194 458.972 373.052C458.814 372.911 458.677 372.649 458.602 372.249L455.655 359.339L452.434 372.159C452.33 372.557 452.207 372.815 452.046 372.953C451.884 373.091 451.604 373.147 451.245 373.143L449.528 373.124ZM475.173 373.956C474.135 373.944 473.098 373.813 472.103 373.562C471.107 373.311 470.332 373.042 469.816 372.737C469.499 372.554 469.282 372.352 469.204 372.171C469.126 371.99 469.088 371.79 469.09 371.611L469.102 370.593C469.107 370.174 469.269 369.976 469.568 369.979C469.688 369.981 469.808 370.002 469.927 370.043C470.046 370.084 470.225 370.166 470.424 370.248C471.099 370.556 471.835 370.804 472.611 370.972C473.408 371.141 474.186 371.23 474.984 371.239C476.242 371.253 477.222 371.045 477.906 370.614C478.59 370.182 478.956 369.548 478.966 368.729C478.972 368.17 478.798 367.709 478.443 367.326C478.088 366.942 477.413 366.595 476.439 366.265L473.554 365.333C472.102 364.857 471.032 364.166 470.384 363.261C469.735 362.375 469.407 361.393 469.419 360.355C469.429 359.516 469.617 358.78 469.983 358.145C470.35 357.51 470.835 356.957 471.439 356.525C472.043 356.073 472.726 355.741 473.527 355.511C474.328 355.28 475.168 355.19 476.046 355.2C476.485 355.205 476.944 355.23 477.383 355.295C477.841 355.36 478.259 355.445 478.678 355.53C479.076 355.634 479.454 355.738 479.812 355.862C480.17 355.986 480.448 356.109 480.646 356.231C480.924 356.394 481.122 356.556 481.239 356.737C481.357 356.898 481.415 357.118 481.411 357.398L481.401 358.336C481.396 358.755 481.234 358.973 480.934 358.969C480.774 358.967 480.516 358.885 480.178 358.721C479.047 358.189 477.772 357.915 476.355 357.899C475.217 357.886 474.317 358.055 473.693 358.427C473.07 358.799 472.744 359.375 472.735 360.193C472.728 360.752 472.923 361.233 473.317 361.617C473.712 362.001 474.447 362.389 475.501 362.74L478.325 363.671C479.757 364.147 480.788 364.797 481.397 365.623C482.006 366.448 482.295 367.39 482.283 368.428C482.273 369.286 482.085 370.063 481.738 370.737C481.371 371.412 480.885 372.005 480.26 372.477C479.636 372.969 478.893 373.32 478.032 373.57C477.13 373.839 476.191 373.968 475.173 373.956Z" fill="white"/>
<path d="M478.835 383.701C472.212 388.476 462.641 390.942 454.437 390.848C442.939 390.716 432.627 386.346 424.883 379.19C424.271 378.624 424.839 377.871 425.572 378.319C433.98 383.327 444.385 386.42 455.185 386.544C462.471 386.628 470.493 385.202 477.894 382.173C478.998 381.686 479.922 382.914 478.835 383.701ZM481.605 380.618C480.779 379.53 476.062 380.035 473.923 380.27C473.283 380.343 473.19 379.783 473.774 379.37C477.557 376.778 483.716 377.608 484.424 378.494C485.133 379.401 484.144 385.558 480.597 388.472C480.053 388.925 479.536 388.68 479.783 388.084C480.604 386.117 482.431 381.685 481.605 380.618Z" fill="white"/> -->
<g filter="url(#filter5_b_415_11747)">
<rect x="210.412" y="166" width="78.7797" height="78.7797" rx="14.0678" fill="white" fill-opacity="0.1"/>
<rect x="209.943" y="165.531" width="79.7175" height="79.7175" rx="14.5367" stroke="white" stroke-opacity="0.2" stroke-width="0.937853"/>
</g>
<!-- <path d="M229.67 214.575L235.584 176.53C235.627 176.248 235.758 175.987 235.958 175.783C236.158 175.58 236.417 175.445 236.698 175.397C236.979 175.349 237.268 175.392 237.524 175.518C237.78 175.644 237.99 175.848 238.123 176.1L244.483 188.032L229.67 214.575ZM271.674 223.807L266.042 188.795C266 188.55 265.892 188.32 265.729 188.132C265.567 187.944 265.355 187.804 265.118 187.728C264.881 187.652 264.628 187.642 264.386 187.7C264.144 187.758 263.922 187.882 263.746 188.057L228.231 223.807L247.882 234.881C248.488 235.222 249.171 235.401 249.866 235.401C250.562 235.401 251.245 235.222 251.851 234.881L271.674 223.807ZM255.705 193.254L251.153 184.546C251.038 184.327 250.866 184.143 250.654 184.015C250.443 183.887 250.2 183.82 249.953 183.82C249.705 183.82 249.463 183.887 249.251 184.015C249.04 184.143 248.867 184.327 248.752 184.546L228.769 220.355L255.705 193.254Z" fill="white"/> -->
<g filter="url(#filter6_b_415_11747)">
<rect x="360.62" y="216.795" width="78.7797" height="78.7797" rx="14.0678" fill="white" fill-opacity="0.1"/>
<rect x="360.151" y="216.326" width="79.7175" height="79.7175" rx="14.5367" stroke="white" stroke-opacity="0.2" stroke-width="0.937853"/>
</g>
<g clip-path="url(#clip1_415_11747)">
<!-- <path d="M369.959 276.345C370.064 277.671 370.529 279.005 371.746 280.795C373.193 282.921 375.681 284.092 377.503 282.224C378.731 280.964 392.041 257.803 398.45 249.027C398.626 248.776 398.86 248.571 399.132 248.43C399.404 248.289 399.706 248.216 400.012 248.216C400.318 248.217 400.62 248.291 400.892 248.433C401.163 248.576 401.396 248.781 401.571 249.033C407.947 257.833 421.167 281.045 422.39 282.31C424.205 284.185 426.698 283.024 428.152 280.903C429.582 278.818 429.98 277.356 429.983 275.79C429.985 274.725 409.401 236.241 407.326 233.035C405.332 229.955 404.723 229.284 401.339 229.167L398.758 229.162C395.374 229.266 394.763 229.933 392.753 233.007C390.712 236.137 370.791 273.03 369.961 275.56L369.959 276.345Z" fill="white"/> -->
</g>
<g filter="url(#filter7_b_415_11747)">
<path d="M322.855 303.864H260.217C256.019 303.864 252.615 307.268 252.615 311.466V374.104C252.615 378.303 256.019 381.706 260.217 381.706H322.855C327.054 381.706 330.457 378.303 330.457 374.104V311.466C330.457 307.268 327.054 303.864 322.855 303.864Z" fill="white" fill-opacity="0.1"/>
<path d="M322.855 303.395H260.217C255.76 303.395 252.146 307.009 252.146 311.466V374.104C252.146 378.562 255.76 382.175 260.217 382.175H322.855C327.313 382.175 330.926 378.562 330.926 374.104V311.466C330.926 307.009 327.313 303.395 322.855 303.395Z" stroke="white" stroke-opacity="0.2" stroke-width="0.937853"/>
</g>
<path fill-rule="evenodd" clip-rule="evenodd" d="M300.517 365.852V373.454C301.748 374.093 303.253 374.564 304.926 374.883C306.598 375.202 308.422 375.354 310.247 375.354C312.071 375.354 313.744 375.187 315.416 374.838C317.088 374.488 318.457 373.91 319.673 373.165C320.904 372.359 321.954 371.341 322.562 369.972C323.17 368.604 323.641 367.084 323.641 365.107C323.641 363.724 323.428 362.523 323.018 361.458C322.607 360.394 322.014 359.482 321.193 358.722C320.418 357.916 319.521 357.201 318.457 356.593C317.392 355.985 316.176 355.347 314.808 354.769C313.804 354.358 312.983 353.963 312.071 353.568C311.281 353.173 310.597 352.777 310.095 352.382C309.532 351.971 309.107 351.546 308.803 351.105C308.498 350.649 308.346 350.147 308.346 349.585C308.346 349.068 308.482 348.596 308.757 348.171C309.032 347.745 309.411 347.395 309.897 347.091C310.384 346.787 310.992 346.559 311.722 346.392C312.436 346.225 313.227 346.149 314.154 346.149C314.793 346.149 315.462 346.196 316.131 346.291C316.83 346.387 317.545 346.535 318.259 346.732C318.974 346.93 319.673 347.173 320.388 347.477C321.057 347.781 321.68 348.131 322.212 348.526V341.381C321.057 340.94 319.779 340.605 318.411 340.393C317.043 340.18 315.522 340.073 313.698 340.073C311.874 340.073 310.201 340.271 308.529 340.651C306.856 341.031 305.488 341.639 304.272 342.475C303.04 343.296 302.143 344.3 301.383 345.668C300.669 346.945 300.319 348.405 300.319 350.229C300.319 352.51 300.973 354.486 302.295 356.006C303.603 357.679 305.64 358.895 308.225 360.111C309.274 360.537 310.201 360.963 311.113 361.373C312.026 361.784 312.786 362.21 313.394 362.65C314.048 363.091 314.565 363.578 314.914 364.095C315.294 364.612 315.492 365.22 315.492 365.919C315.492 366.406 315.373 366.862 315.142 367.287C314.911 367.713 314.549 368.078 314.063 368.382C313.576 368.686 312.983 368.929 312.239 369.112C311.524 369.279 310.718 369.37 309.654 369.37C307.982 369.37 306.309 369.081 304.789 368.504C303.116 367.926 301.596 367.059 300.228 365.919L300.517 365.852ZM287.746 347.152H297.476V340.919H270.262V347.152H279.992V374.974H287.746V347.152Z" fill="white"/>
<g filter="url(#filter8_b_415_11747)">
<rect x="282.627" y="440.791" width="78.7797" height="78.7797" rx="14.0678" fill="white" fill-opacity="0.1"/>
<rect x="282.158" y="440.322" width="79.7175" height="79.7175" rx="14.5367" stroke="white" stroke-opacity="0.2" stroke-width="0.937853"/>
</g>
<g clip-path="url(#clip2_415_11747)">
<path d="M322.093 453.657C307.025 453.657 294.818 465.874 294.818 480.932C294.818 492.989 302.633 503.208 313.462 506.814C314.831 507.071 315.326 506.227 315.326 505.498C315.326 504.85 315.31 503.137 315.3 500.863C307.709 502.506 306.11 497.196 306.11 497.196C304.867 494.052 303.074 493.209 303.074 493.209C300.606 491.523 303.27 491.559 303.27 491.559C306.004 491.744 307.443 494.363 307.443 494.363C309.876 498.536 313.825 497.329 315.389 496.627C315.627 494.869 316.338 493.66 317.112 492.987C311.057 492.303 304.69 489.96 304.69 479.508C304.69 476.523 305.747 474.093 307.494 472.183C307.193 471.5 306.269 468.721 307.735 464.964C307.735 464.964 310.017 464.236 315.235 467.761C317.419 467.156 319.737 466.855 322.054 466.839C324.372 466.855 326.689 467.158 328.872 467.761C334.06 464.236 336.341 464.964 336.341 464.964C337.805 468.721 336.881 471.498 336.615 472.183C338.345 474.093 339.402 476.525 339.402 479.508C339.402 489.983 333.027 492.293 326.965 492.96C327.913 493.776 328.801 495.455 328.801 498.004C328.801 501.652 328.767 504.591 328.767 505.479C328.767 506.188 329.244 507.04 330.649 506.766C341.559 503.198 349.364 492.97 349.364 480.93C349.364 465.873 337.157 453.655 322.09 453.655L322.093 453.657Z" fill="white"/>
</g>
<g filter="url(#filter9_b_415_11747)">
<rect x="129.756" y="416.407" width="78.7797" height="78.7797" rx="14.0678" fill="white" fill-opacity="0.1"/>
<rect x="129.287" y="415.938" width="79.7175" height="79.7175" rx="14.5367" stroke="white" stroke-opacity="0.2" stroke-width="0.937853"/>
</g>
<path d="M194.178 438.911L170.971 480.409C170.492 481.266 169.261 481.271 168.774 480.418L145.107 438.915C144.577 437.986 145.372 436.86 146.425 437.049L169.657 441.201C169.805 441.228 169.957 441.227 170.105 441.2L192.851 437.054C193.9 436.863 194.698 437.98 194.178 438.911V438.911Z" fill="url(#paint2_linear_415_11747)"/>
<path d="M180.723 431.602L163.549 434.967C163.412 434.994 163.288 435.066 163.196 435.171C163.104 435.276 163.049 435.409 163.041 435.549L161.985 453.391C161.979 453.489 161.996 453.587 162.034 453.677C162.073 453.767 162.132 453.847 162.207 453.91C162.282 453.973 162.37 454.018 162.466 454.041C162.561 454.064 162.66 454.065 162.756 454.043L167.537 452.939C167.985 452.836 168.389 453.23 168.297 453.68L166.876 460.636C166.781 461.105 167.22 461.505 167.677 461.366L170.631 460.469C171.089 460.33 171.529 460.731 171.432 461.2L169.174 472.126C169.033 472.81 169.942 473.183 170.321 472.597L170.574 472.205L184.569 444.277C184.803 443.81 184.399 443.277 183.885 443.376L178.963 444.326C178.501 444.415 178.108 443.984 178.238 443.532L181.45 432.396C181.581 431.942 181.186 431.511 180.723 431.602H180.723Z" fill="url(#paint3_linear_415_11747)"/>
<g filter="url(#filter10_b_415_11747)">
<rect x="104.435" y="254.158" width="78.7797" height="78.7797" rx="14.0678" fill="white" fill-opacity="0.1"/>
<rect x="103.966" y="253.689" width="79.7175" height="79.7175" rx="14.5367" stroke="white" stroke-opacity="0.2" stroke-width="0.937853"/>
</g>
<!-- <path d="M104.435 254.158H183.215V332.938H104.435V254.158Z" fill="url(#paint4_linear_415_11747)"/> -->
<g filter="url(#filter11_b_415_11747)">
<rect x="322.955" y="559.898" width="78.7797" height="78.7797" rx="14.0678" fill="white" fill-opacity="0.1"/>
<rect x="322.486" y="559.43" width="79.7175" height="79.7175" rx="14.5367" stroke="white" stroke-opacity="0.2" stroke-width="0.937853"/>
</g>
<path d="M336.09 568.339C335.523 568.339 335.1 568.801 335.151 569.366L339.933 623.014C339.984 623.579 340.472 624.166 341.019 624.318L361.315 629.953C361.862 630.105 362.756 630.105 363.303 629.953L383.661 624.309C384.208 624.157 384.697 623.571 384.747 623.006L389.538 569.366C389.589 568.801 389.165 568.339 388.598 568.339H336.09ZM379.352 580.643C379.307 581.147 379.229 582.022 379.178 582.587L379.052 583.994C379.002 584.559 378.929 585.367 378.891 585.79C378.853 586.212 378.817 586.558 378.811 586.558C378.804 586.558 378.335 586.558 377.767 586.558H363.376C362.808 586.558 362.339 586.558 362.333 586.558C362.327 586.558 361.858 586.558 361.29 586.558H353.711C353.144 586.558 352.721 587.02 352.771 587.585L353.213 592.527C353.264 593.092 353.769 593.554 354.337 593.554H361.291C361.858 593.554 362.327 593.554 362.333 593.554C362.34 593.554 362.809 593.554 363.376 593.554H375.329C375.896 593.554 376.774 593.554 377.28 593.554C377.785 593.554 378.161 593.967 378.116 594.471C378.07 594.975 377.991 595.85 377.941 596.415L376.519 612.347C376.468 612.912 376.404 613.634 376.376 613.951C376.348 614.268 375.878 614.652 375.331 614.803L363.338 618.129C362.792 618.28 362.337 618.406 362.329 618.407C362.32 618.409 361.866 618.287 361.319 618.135L349.314 614.804C348.767 614.652 348.279 614.065 348.228 613.5L347.455 604.826C347.405 604.261 347.828 603.799 348.396 603.799H349.491C350.059 603.799 350.987 603.799 351.554 603.799H353.188C353.755 603.799 354.261 604.261 354.311 604.826L354.614 608.222C354.665 608.787 355.154 609.37 355.702 609.518L361.318 611.035C361.865 611.183 362.315 611.304 362.318 611.304C362.32 611.304 362.77 611.182 363.318 611.034L368.944 609.514C369.491 609.366 369.981 608.783 370.032 608.218L370.642 601.415C370.692 600.85 370.27 600.388 369.702 600.388H363.376C362.809 600.388 362.34 600.388 362.333 600.388C362.327 600.388 361.858 600.388 361.291 600.388H348.09C347.522 600.388 347.017 599.925 346.967 599.36L345.47 582.587C345.419 582.022 345.341 581.147 345.296 580.643C345.251 580.139 345.679 579.726 346.246 579.726H361.291C361.858 579.726 362.327 579.726 362.333 579.726C362.34 579.726 362.809 579.726 363.376 579.726H378.402C378.97 579.726 379.397 580.139 379.352 580.643Z" fill="white"/>
</g>
<defs>
<filter id="filter0_b_415_11747" x="50.0398" y="537.389" width="144.429" height="144.429" filterUnits="userSpaceOnUse" color-interpolation-filters="sRGB">
<feFlood flood-opacity="0" result="BackgroundImageFix"/>
<feGaussianBlur in="BackgroundImageFix" stdDeviation="15.9435"/>
<feComposite in2="SourceAlpha" operator="in" result="effect1_backgroundBlur_415_11747"/>
<feBlend mode="normal" in="SourceGraphic" in2="effect1_backgroundBlur_415_11747" result="shape"/>
</filter>
<filter id="filter1_b_415_11747" x="262.587" y="33.4182" width="143.491" height="143.492" filterUnits="userSpaceOnUse" color-interpolation-filters="sRGB">
<feFlood flood-opacity="0" result="BackgroundImageFix"/>
<feGaussianBlur in="BackgroundImageFix" stdDeviation="15.9435"/>
<feComposite in2="SourceAlpha" operator="in" result="effect1_backgroundBlur_415_11747"/>
<feBlend mode="normal" in="SourceGraphic" in2="effect1_backgroundBlur_415_11747" result="shape"/>
</filter>
<filter id="filter2_b_415_11747" x="98.2136" y="-7.15849" width="144.429" height="144.429" filterUnits="userSpaceOnUse" color-interpolation-filters="sRGB">
<feFlood flood-opacity="0" result="BackgroundImageFix"/>
<feGaussianBlur in="BackgroundImageFix" stdDeviation="15.9435"/>
<feComposite in2="SourceAlpha" operator="in" result="effect1_backgroundBlur_415_11747"/>
<feBlend mode="normal" in="SourceGraphic" in2="effect1_backgroundBlur_415_11747" result="shape"/>
</filter>
<filter id="filter3_b_415_11747" x="155.816" y="52.4409" width="29.0839" height="25.3818" filterUnits="userSpaceOnUse" color-interpolation-filters="sRGB">
<feFlood flood-opacity="0" result="BackgroundImageFix"/>
<feGaussianBlur in="BackgroundImageFix" stdDeviation="1.56517"/>
<feComposite in2="SourceAlpha" operator="in" result="effect1_backgroundBlur_415_11747"/>
<feBlend mode="normal" in="SourceGraphic" in2="effect1_backgroundBlur_415_11747" result="shape"/>
</filter>
<filter id="filter4_b_415_11747" x="382.2" y="300.273" width="145.005" height="145.006" filterUnits="userSpaceOnUse" color-interpolation-filters="sRGB">
<feFlood flood-opacity="0" result="BackgroundImageFix"/>
<feGaussianBlur in="BackgroundImageFix" stdDeviation="15.9435"/>
<feComposite in2="SourceAlpha" operator="in" result="effect1_backgroundBlur_415_11747"/>
<feBlend mode="normal" in="SourceGraphic" in2="effect1_backgroundBlur_415_11747" result="shape"/>
</filter>
<filter id="filter5_b_415_11747" x="177.588" y="133.175" width="144.429" height="144.429" filterUnits="userSpaceOnUse" color-interpolation-filters="sRGB">
<feFlood flood-opacity="0" result="BackgroundImageFix"/>
<feGaussianBlur in="BackgroundImageFix" stdDeviation="15.9435"/>
<feComposite in2="SourceAlpha" operator="in" result="effect1_backgroundBlur_415_11747"/>
<feBlend mode="normal" in="SourceGraphic" in2="effect1_backgroundBlur_415_11747" result="shape"/>
</filter>
<filter id="filter6_b_415_11747" x="327.796" y="183.97" width="144.429" height="144.429" filterUnits="userSpaceOnUse" color-interpolation-filters="sRGB">
<feFlood flood-opacity="0" result="BackgroundImageFix"/>
<feGaussianBlur in="BackgroundImageFix" stdDeviation="15.9435"/>
<feComposite in2="SourceAlpha" operator="in" result="effect1_backgroundBlur_415_11747"/>
<feBlend mode="normal" in="SourceGraphic" in2="effect1_backgroundBlur_415_11747" result="shape"/>
</filter>
<filter id="filter7_b_415_11747" x="219.791" y="271.039" width="143.491" height="143.492" filterUnits="userSpaceOnUse" color-interpolation-filters="sRGB">
<feFlood flood-opacity="0" result="BackgroundImageFix"/>
<feGaussianBlur in="BackgroundImageFix" stdDeviation="15.9435"/>
<feComposite in2="SourceAlpha" operator="in" result="effect1_backgroundBlur_415_11747"/>
<feBlend mode="normal" in="SourceGraphic" in2="effect1_backgroundBlur_415_11747" result="shape"/>
</filter>
<filter id="filter8_b_415_11747" x="249.802" y="407.966" width="144.429" height="144.429" filterUnits="userSpaceOnUse" color-interpolation-filters="sRGB">
<feFlood flood-opacity="0" result="BackgroundImageFix"/>
<feGaussianBlur in="BackgroundImageFix" stdDeviation="15.9435"/>
<feComposite in2="SourceAlpha" operator="in" result="effect1_backgroundBlur_415_11747"/>
<feBlend mode="normal" in="SourceGraphic" in2="effect1_backgroundBlur_415_11747" result="shape"/>
</filter>
<filter id="filter9_b_415_11747" x="96.9314" y="383.582" width="144.429" height="144.429" filterUnits="userSpaceOnUse" color-interpolation-filters="sRGB">
<feFlood flood-opacity="0" result="BackgroundImageFix"/>
<feGaussianBlur in="BackgroundImageFix" stdDeviation="15.9435"/>
<feComposite in2="SourceAlpha" operator="in" result="effect1_backgroundBlur_415_11747"/>
<feBlend mode="normal" in="SourceGraphic" in2="effect1_backgroundBlur_415_11747" result="shape"/>
</filter>
<filter id="filter10_b_415_11747" x="71.6101" y="221.333" width="144.429" height="144.429" filterUnits="userSpaceOnUse" color-interpolation-filters="sRGB">
<feFlood flood-opacity="0" result="BackgroundImageFix"/>
<feGaussianBlur in="BackgroundImageFix" stdDeviation="15.9435"/>
<feComposite in2="SourceAlpha" operator="in" result="effect1_backgroundBlur_415_11747"/>
<feBlend mode="normal" in="SourceGraphic" in2="effect1_backgroundBlur_415_11747" result="shape"/>
</filter>
<filter id="filter11_b_415_11747" x="290.131" y="527.073" width="144.429" height="144.429" filterUnits="userSpaceOnUse" color-interpolation-filters="sRGB">
<feFlood flood-opacity="0" result="BackgroundImageFix"/>
<feGaussianBlur in="BackgroundImageFix" stdDeviation="15.9435"/>
<feComposite in2="SourceAlpha" operator="in" result="effect1_backgroundBlur_415_11747"/>
<feBlend mode="normal" in="SourceGraphic" in2="effect1_backgroundBlur_415_11747" result="shape"/>
</filter>
<radialGradient id="paint0_radial_415_11747" cx="0" cy="0" r="1" gradientUnits="userSpaceOnUse" gradientTransform="translate(332 332.938) rotate(90) scale(349.759)">
<stop stop-color="white"/>
<stop offset="1" stop-color="white" stop-opacity="0"/>
</radialGradient>
<linearGradient id="paint1_linear_415_11747" x1="141.949" y1="-81.5932" x2="363.282" y2="699.638" gradientUnits="userSpaceOnUse">
<stop offset="0.416946"/>
<stop offset="0.880782" stop-opacity="0.02"/>
</linearGradient>
<!-- <linearGradient id="paint2_linear_415_11747" x1="144.529" y1="440.397" x2="169.558" y2="474.388" gradientUnits="userSpaceOnUse">
<stop stop-color="white" stop-opacity="0"/>
<stop offset="1" stop-color="white"/>
</linearGradient> -->
<!-- <linearGradient id="paint3_linear_415_11747" x1="171.81" y1="432.516" x2="176.958" y2="467.836" gradientUnits="userSpaceOnUse">
<stop offset="0.0001" stop-color="white"/>
</linearGradient> -->
<clipPath id="clip0_415_11747">
<rect width="54.3955" height="54.3955" fill="white" transform="translate(95.0557 582.407)"/>
</clipPath>
<clipPath id="clip1_415_11747">
<rect width="60.0226" height="60.0226" fill="white" transform="translate(370.055 226.116) rotate(0.109914)"/>
</clipPath>
<clipPath id="clip2_415_11747">
<rect width="54.5493" height="54.5493" fill="white" transform="translate(294.818 452.982)"/>
</clipPath>
</defs>
</svg>
