<svg width="1287.12001953125px" height="184.439990234375px" xmlns="http://www.w3.org/2000/svg" viewBox="-393.56000976562495 -17.219995117187494 1287.12001953125 184.439990234375" style="background: transparent --darkreader-inline-bgcolor: rgba(19, 19, 19, 0); --darkreader-inline-bgimage: none;" data-darkreader-inline-bgcolor="" data-darkreader-inline-bgimage="" preserveAspectRatio="xMidYMid">
  <defs>
    <linearGradient id="editing-gradient-gradient" x1="0.9635919272833937" x2="0.03640807271660634" y1="0.3126967032920439" y2="0.6873032967079561" gradientUnits="objectBoundingBox">
      <stop offset="0" stop-color="#6ee7b7" style="--darkreader-inline-stopcolor: #9b179a;" data-darkreader-inline-stopcolor=""></stop>
      <stop offset="1" stop-color="#38bdf8" style="--darkreader-inline-stopcolor: #1a9d9b;" data-darkreader-inline-stopcolor=""></stop>
    </linearGradient>
  </defs>
  <g>
    <g transform="translate(-217.42998838424683, 121.05999660491943)">
      <path d="M42.09-32.91L75.92 0L58.98 0L32.13-26.90L23.73-26.90L23.73-38.92L32.13-38.92L58.98-65.82L75.92-65.82L42.09-32.91ZM18.96-65.82L18.96 0L7.02 0L7.02-65.82L18.96-65.82ZM132.88-33.18L132.88-16.43L132.88-16.43Q132.88-13.95 132.00-11.08L132.00-11.08L132.00-11.08Q131.13-8.22 129.18-5.76L129.18-5.76L129.18-5.76Q127.23-3.30 124.09-1.65L124.09-1.65L124.09-1.65Q120.94 0 116.44 0L116.44 0L94.92 0L94.92 0Q92.44 0 89.57-0.87L89.57-0.87L89.57-0.87Q86.70-1.74 84.25-3.69L84.25-3.69L84.25-3.69Q81.79-5.65 80.14-8.79L80.14-8.79L80.14-8.79Q78.49-11.93 78.49-16.43L78.49-16.43L78.49-16.43Q78.49-18.91 79.36-21.80L79.36-21.80L79.36-21.80Q80.23-24.69 82.18-27.15L82.18-27.15L82.18-27.15Q84.13-29.60 87.28-31.26L87.28-31.26L87.28-31.26Q90.42-32.91 94.92-32.91L94.92-32.91L116.44-32.91L116.44-21.53L94.92-21.53L94.92-21.53Q92.49-21.53 91.15-20.03L91.15-20.03L91.15-20.03Q89.82-18.54 89.82-16.34L89.82-16.34L89.82-16.34Q89.82-14.00 91.36-12.69L91.36-12.69L91.36-12.69Q92.90-11.38 95.01-11.38L95.01-11.38L116.44-11.38L116.44-11.38Q118.88-11.38 120.21-12.85L120.21-12.85L120.21-12.85Q121.54-14.32 121.54-16.52L121.54-16.52L121.54-33.18L121.54-33.18Q121.54-35.53 120.09-36.90L120.09-36.90L120.09-36.90Q118.65-38.28 116.44-38.28L116.44-38.28L90.24-38.28L90.24-49.62L116.44-49.62L116.44-49.62Q118.92-49.62 121.79-48.74L121.79-48.74L121.79-48.74Q124.66-47.87 127.12-45.92L127.12-45.92L127.12-45.92Q129.57-43.97 131.22-40.83L131.22-40.83L131.22-40.83Q132.88-37.68 132.88-33.18L132.88-33.18ZM198.05-27.54L198.05 0L186.12 0L186.12-27.54L186.12-27.54Q186.12-29.88 185.31-31.74L185.31-31.74L185.31-31.74Q184.51-33.60 183.13-34.93L183.13-34.93L183.13-34.93Q181.76-36.26 179.90-36.97L179.90-36.97L179.90-36.97Q178.04-37.68 175.88-37.68L175.88-37.68L155.00-37.68L155.00 0L143.07 0L143.07-43.70L143.07-43.70Q143.07-44.93 143.52-46.01L143.52-46.01L143.52-46.01Q143.98-47.09 144.81-47.90L144.81-47.90L144.81-47.90Q145.64-48.70 146.74-49.16L146.74-49.16L146.74-49.16Q147.84-49.62 149.08-49.62L149.08-49.62L175.97-49.62L175.97-49.62Q178.22-49.62 180.73-49.11L180.73-49.11L180.73-49.11Q183.23-48.61 185.68-47.48L185.68-47.48L185.68-47.48Q188.14-46.36 190.36-44.64L190.36-44.64L190.36-44.64Q192.59-42.92 194.31-40.46L194.31-40.46L194.31-40.46Q196.03-38.00 197.04-34.79L197.04-34.79L197.04-34.79Q198.05-31.58 198.05-27.54L198.05-27.54ZM220.63-70.59L220.63-59.81L208.70-59.81L208.70-70.59L220.63-70.59ZM220.63-49.62L220.63 0L208.70 0L208.70-49.62L220.63-49.62ZM280.03-16.75L280.03-16.75L280.03-16.75Q280.03-13.68 279.25-11.22L279.25-11.22L279.25-11.22Q278.47-8.77 277.18-6.91L277.18-6.91L277.18-6.91Q275.90-5.05 274.20-3.74L274.20-3.74L274.20-3.74Q272.50-2.43 270.64-1.61L270.64-1.61L270.64-1.61Q268.78-0.78 266.88-0.39L266.88-0.39L266.88-0.39Q264.97 0 263.27 0L263.27 0L230.96 0L230.96-11.93L263.18-11.93L263.18-11.93Q265.61-11.93 266.85-13.17L266.85-13.17L266.85-13.17Q268.09-14.41 268.09-16.75L268.09-16.75L268.09-16.75Q267.86-21.53 263.27-21.53L263.27-21.53L244.78-21.53L244.78-21.53Q240.83-21.53 238.08-22.90L238.08-22.90L238.08-22.90Q235.32-24.28 233.60-26.35L233.60-26.35L233.60-26.35Q231.88-28.41 231.12-30.80L231.12-30.80L231.12-30.80Q230.36-33.18 230.36-35.25L230.36-35.25L230.36-35.25Q230.36-39.24 231.79-41.97L231.79-41.97L231.79-41.97Q233.21-44.71 235.37-46.40L235.37-46.40L235.37-46.40Q237.52-48.10 240.05-48.86L240.05-48.86L240.05-48.86Q242.57-49.62 244.78-49.62L244.78-49.62L274.11-49.62L274.11-37.68L244.87-37.68L244.87-37.68Q243.95-37.68 243.42-37.48L243.42-37.48L243.42-37.48Q242.89-37.27 242.64-36.93L242.64-36.93L242.64-36.93Q242.39-36.58 242.34-36.19L242.34-36.19L242.34-36.19Q242.30-35.80 242.30-35.43L242.30-35.43L242.30-35.43Q242.34-34.70 242.57-34.29L242.57-34.29L242.57-34.29Q242.80-33.87 243.15-33.69L243.15-33.69L243.15-33.69Q243.49-33.51 243.93-33.48L243.93-33.48L243.93-33.48Q244.36-33.46 244.78-33.46L244.78-33.46L263.27-33.46L263.27-33.46Q267.86-33.46 271.08-31.81L271.08-31.81L271.08-31.81Q274.29-30.16 276.26-27.65L276.26-27.65L276.26-27.65Q278.24-25.15 279.13-22.21L279.13-22.21L279.13-22.21Q280.03-19.28 280.03-16.75ZM343.55-32.91L343.55 0L331.62 0L331.62-32.91L331.62-32.91Q331.62-35.25 330.42-36.47L330.42-36.47L330.42-36.47Q329.23-37.68 326.84-37.68L326.84-37.68L305.32-37.68L305.32-49.62L326.84-49.62L326.84-49.62Q328.54-49.62 330.42-49.23L330.42-49.23L330.42-49.23Q332.30-48.84 334.16-48.01L334.16-48.01L334.16-48.01Q336.02-47.18 337.72-45.88L337.72-45.88L337.72-45.88Q339.42-44.57 340.70-42.71L340.70-42.71L340.70-42.71Q341.99-40.85 342.77-38.42L342.77-38.42L342.77-38.42Q343.55-35.98 343.55-32.91L343.55-32.91ZM300.50-70.59L300.50 0L288.56 0L288.56-70.59L300.50-70.59ZM405.70-33.18L405.70-16.43L405.70-16.43Q405.70-13.95 404.82-11.08L404.82-11.08L404.82-11.08Q403.95-8.22 402.00-5.76L402.00-5.76L402.00-5.76Q400.05-3.30 396.91-1.65L396.91-1.65L396.91-1.65Q393.76 0 389.26 0L389.26 0L367.74 0L367.74 0Q365.26 0 362.39-0.87L362.39-0.87L362.39-0.87Q359.52-1.74 357.07-3.69L357.07-3.69L357.07-3.69Q354.61-5.65 352.96-8.79L352.96-8.79L352.96-8.79Q351.31-11.93 351.31-16.43L351.31-16.43L351.31-16.43Q351.31-18.91 352.18-21.80L352.18-21.80L352.18-21.80Q353.05-24.69 355.00-27.15L355.00-27.15L355.00-27.15Q356.95-29.60 360.10-31.26L360.10-31.26L360.10-31.26Q363.24-32.91 367.74-32.91L367.74-32.91L389.26-32.91L389.26-21.53L367.74-21.53L367.74-21.53Q365.31-21.53 363.97-20.03L363.97-20.03L363.97-20.03Q362.64-18.54 362.64-16.34L362.64-16.34L362.64-16.34Q362.64-14.00 364.18-12.69L364.18-12.69L364.18-12.69Q365.72-11.38 367.83-11.38L367.83-11.38L389.26-11.38L389.26-11.38Q391.70-11.38 393.03-12.85L393.03-12.85L393.03-12.85Q394.36-14.32 394.36-16.52L394.36-16.52L394.36-33.18L394.36-33.18Q394.36-35.53 392.91-36.90L392.91-36.90L392.91-36.90Q391.47-38.28 389.26-38.28L389.26-38.28L363.06-38.28L363.06-49.62L389.26-49.62L389.26-49.62Q391.74-49.62 394.61-48.74L394.61-48.74L394.61-48.74Q397.48-47.87 399.94-45.92L399.94-45.92L399.94-45.92Q402.39-43.97 404.04-40.83L404.04-40.83L404.04-40.83Q405.70-37.68 405.70-33.18L405.70-33.18ZM446.09-27.08L474.18 0L456.96 0L432.91-23.22L432.91-23.22Q430.89-25.06 431.03-27.81L431.03-27.81L431.03-27.81Q431.12-29.10 431.70-30.22L431.70-30.22L431.70-30.22Q432.27-31.35 433.28-32.13L433.28-32.13L455.08-49.71L474.18-49.71L446.09-27.08ZM428.00-70.59L428.00 0L416.07 0L416.07-70.59L428.00-70.59ZM530.49-33.18L530.49-16.43L530.49-16.43Q530.49-13.95 529.62-11.08L529.62-11.08L529.62-11.08Q528.75-8.22 526.80-5.76L526.80-5.76L526.80-5.76Q524.85-3.30 521.70-1.65L521.70-1.65L521.70-1.65Q518.56 0 514.06 0L514.06 0L492.54 0L492.54 0Q490.06 0 487.19-0.87L487.19-0.87L487.19-0.87Q484.32-1.74 481.86-3.69L481.86-3.69L481.86-3.69Q479.41-5.65 477.76-8.79L477.76-8.79L477.76-8.79Q476.10-11.93 476.10-16.43L476.10-16.43L476.10-16.43Q476.10-18.91 476.98-21.80L476.98-21.80L476.98-21.80Q477.85-24.69 479.80-27.15L479.80-27.15L479.80-27.15Q481.75-29.60 484.89-31.26L484.89-31.26L484.89-31.26Q488.04-32.91 492.54-32.91L492.54-32.91L514.06-32.91L514.06-21.53L492.54-21.53L492.54-21.53Q490.10-21.53 488.77-20.03L488.77-20.03L488.77-20.03Q487.44-18.54 487.44-16.34L487.44-16.34L487.44-16.34Q487.44-14.00 488.98-12.69L488.98-12.69L488.98-12.69Q490.52-11.38 492.63-11.38L492.63-11.38L514.06-11.38L514.06-11.38Q516.50-11.38 517.83-12.85L517.83-12.85L517.83-12.85Q519.16-14.32 519.16-16.52L519.16-16.52L519.16-33.18L519.16-33.18Q519.16-35.53 517.71-36.90L517.71-36.90L517.71-36.90Q516.27-38.28 514.06-38.28L514.06-38.28L487.85-38.28L487.85-49.62L514.06-49.62L514.06-49.62Q516.54-49.62 519.41-48.74L519.41-48.74L519.41-48.74Q522.28-47.87 524.73-45.92L524.73-45.92L524.73-45.92Q527.19-43.97 528.84-40.83L528.84-40.83L528.84-40.83Q530.49-37.68 530.49-33.18L530.49-33.18ZM638.17-43.70L638.17-38.28L638.17-38.28Q638.17-34.19 637.16-30.98L637.16-30.98L637.16-30.98Q636.15-27.77 634.43-25.31L634.43-25.31L634.43-25.31Q632.71-22.86 630.46-21.11L630.46-21.11L630.46-21.11Q628.21-19.37 625.76-18.27L625.76-18.27L625.76-18.27Q623.30-17.17 620.80-16.66L620.80-16.66L620.80-16.66Q618.30-16.16 616.09-16.16L616.09-16.16L589.11-16.16L589.11-28.09L616.09-28.09L616.09-28.09Q618.39-28.27 620.25-29.03L620.25-29.03L620.25-29.03Q622.11-29.79 623.44-31.07L623.44-31.07L623.44-31.07Q624.77-32.36 625.50-34.17L625.50-34.17L625.50-34.17Q626.24-35.98 626.24-38.28L626.24-38.28L626.24-43.70L626.24-43.70Q626.01-45.94 625.27-47.83L625.27-47.83L625.27-47.83Q624.54-49.71 623.28-51.04L623.28-51.04L623.28-51.04Q622.02-52.37 620.23-53.13L620.23-53.13L620.23-53.13Q618.44-53.88 616.09-53.88L616.09-53.88L589.20-53.88L589.20-53.88Q586.81-53.88 585.57-52.65L585.57-52.65L585.57-52.65Q584.33-51.41 584.33-49.07L584.33-49.07L584.33 0L572.40 0L572.40-49.07L572.40-49.07Q572.40-53.66 574.07-56.87L574.07-56.87L574.07-56.87Q575.75-60.08 578.25-62.05L578.25-62.05L578.25-62.05Q580.75-64.03 583.69-64.92L583.69-64.92L583.69-64.92Q586.63-65.82 589.11-65.82L589.11-65.82L616.09-65.82L616.09-65.82Q620.13-65.82 623.35-64.79L623.35-64.79L623.35-64.79Q626.56-63.75 629.02-62.03L629.02-62.03L629.02-62.03Q631.47-60.31 633.19-58.06L633.19-58.06L633.19-58.06Q634.91-55.81 636.04-53.36L636.04-53.36L636.04-53.36Q637.16-50.90 637.67-48.40L637.67-48.40L637.67-48.40Q638.17-45.90 638.17-43.70L638.17-43.70ZM690.22-49.62L690.22-37.68L663.37-37.68L663.37-37.68Q660.94-37.68 659.70-36.47L659.70-36.47L659.70-36.47Q658.46-35.25 658.46-32.91L658.46-32.91L658.46 0L646.53 0L646.53-32.91L646.53-32.91Q646.53-35.98 647.31-38.42L647.31-38.42L647.31-38.42Q648.09-40.85 649.39-42.71L649.39-42.71L649.39-42.71Q650.70-44.57 652.40-45.88L652.40-45.88L652.40-45.88Q654.10-47.18 655.96-48.01L655.96-48.01L655.96-48.01Q657.82-48.84 659.72-49.23L659.72-49.23L659.72-49.23Q661.63-49.62 663.28-49.62L663.28-49.62L690.22-49.62ZM745.44-33.18L745.44-16.43L745.44-16.43Q745.44-13.95 744.56-11.08L744.56-11.08L744.56-11.08Q743.69-8.22 741.74-5.76L741.74-5.76L741.74-5.76Q739.79-3.30 736.65-1.65L736.65-1.65L736.65-1.65Q733.50 0 729.00 0L729.00 0L707.48 0L707.48 0Q705 0 702.13-0.87L702.13-0.87L702.13-0.87Q699.26-1.74 696.81-3.69L696.81-3.69L696.81-3.69Q694.35-5.65 692.70-8.79L692.70-8.79L692.70-8.79Q691.05-11.93 691.05-16.43L691.05-16.43L691.05-16.43Q691.05-18.91 691.92-21.80L691.92-21.80L691.92-21.80Q692.79-24.69 694.74-27.15L694.74-27.15L694.74-27.15Q696.69-29.60 699.84-31.26L699.84-31.26L699.84-31.26Q702.98-32.91 707.48-32.91L707.48-32.91L729.00-32.91L729.00-21.53L707.48-21.53L707.48-21.53Q705.05-21.53 703.71-20.03L703.71-20.03L703.71-20.03Q702.38-18.54 702.38-16.34L702.38-16.34L702.38-16.34Q702.38-14.00 703.92-12.69L703.92-12.69L703.92-12.69Q705.46-11.38 707.57-11.38L707.57-11.38L729.00-11.38L729.00-11.38Q731.44-11.38 732.77-12.85L732.77-12.85L732.77-12.85Q734.10-14.32 734.10-16.52L734.10-16.52L734.10-33.18L734.10-33.18Q734.10-35.53 732.65-36.90L732.65-36.90L732.65-36.90Q731.21-38.28 729.00-38.28L729.00-38.28L702.80-38.28L702.80-49.62L729.00-49.62L729.00-49.62Q731.48-49.62 734.35-48.74L734.35-48.74L734.35-48.74Q737.22-47.87 739.68-45.92L739.68-45.92L739.68-45.92Q742.13-43.97 743.78-40.83L743.78-40.83L743.78-40.83Q745.44-37.68 745.44-33.18L745.44-33.18ZM810.61-27.54L810.61 0L798.68 0L798.68-27.54L798.68-27.54Q798.68-29.88 797.88-31.74L797.88-31.74L797.88-31.74Q797.07-33.60 795.70-34.93L795.70-34.93L795.70-34.93Q794.32-36.26 792.46-36.97L792.46-36.97L792.46-36.97Q790.60-37.68 788.44-37.68L788.44-37.68L767.56-37.68L767.56 0L755.63 0L755.63-43.70L755.63-43.70Q755.63-44.93 756.08-46.01L756.08-46.01L756.08-46.01Q756.54-47.09 757.37-47.90L757.37-47.90L757.37-47.90Q758.20-48.70 759.30-49.16L759.30-49.16L759.30-49.16Q760.40-49.62 761.64-49.62L761.64-49.62L788.54-49.62L788.54-49.62Q790.78-49.62 793.29-49.11L793.29-49.11L793.29-49.11Q795.79-48.61 798.24-47.48L798.24-47.48L798.24-47.48Q800.70-46.36 802.92-44.64L802.92-44.64L802.92-44.64Q805.15-42.92 806.87-40.46L806.87-40.46L806.87-40.46Q808.59-38.00 809.60-34.79L809.60-34.79L809.60-34.79Q810.61-31.58 810.61-27.54L810.61-27.54ZM833.19-70.59L833.19-59.81L821.26-59.81L821.26-70.59L833.19-70.59ZM833.19-49.62L833.19 4.77L833.19 4.77Q833.19 7.85 832.41 10.30L832.41 10.30L832.41 10.30Q831.63 12.76 830.35 14.62L830.35 14.62L830.35 14.62Q829.06 16.48 827.37 17.79L827.37 17.79L827.37 17.79Q825.67 19.09 823.81 19.92L823.81 19.92L823.81 19.92Q821.95 20.75 820.07 21.14L820.07 21.14L820.07 21.14Q818.19 21.53 816.49 21.53L816.49 21.53L794.96 21.53L794.96 9.59L816.49 9.59L816.49 9.59Q818.87 9.59 820.07 8.35L820.07 8.35L820.07 8.35Q821.26 7.11 821.26 4.77L821.26 4.77L821.26-49.62L833.19-49.62ZM895.85-33.18L895.85-16.43L895.85-16.43Q895.85-13.95 894.97-11.08L894.97-11.08L894.97-11.08Q894.10-8.22 892.15-5.76L892.15-5.76L892.15-5.76Q890.20-3.30 887.06-1.65L887.06-1.65L887.06-1.65Q883.91 0 879.41 0L879.41 0L857.89 0L857.89 0Q855.41 0 852.54-0.87L852.54-0.87L852.54-0.87Q849.67-1.74 847.22-3.69L847.22-3.69L847.22-3.69Q844.76-5.65 843.11-8.79L843.11-8.79L843.11-8.79Q841.46-11.93 841.46-16.43L841.46-16.43L841.46-16.43Q841.46-18.91 842.33-21.80L842.33-21.80L842.33-21.80Q843.20-24.69 845.15-27.15L845.15-27.15L845.15-27.15Q847.10-29.60 850.25-31.26L850.25-31.26L850.25-31.26Q853.39-32.91 857.89-32.91L857.89-32.91L879.41-32.91L879.41-21.53L857.89-21.53L857.89-21.53Q855.46-21.53 854.12-20.03L854.12-20.03L854.12-20.03Q852.79-18.54 852.79-16.34L852.79-16.34L852.79-16.34Q852.79-14.00 854.33-12.69L854.33-12.69L854.33-12.69Q855.87-11.38 857.98-11.38L857.98-11.38L879.41-11.38L879.41-11.38Q881.85-11.38 883.18-12.85L883.18-12.85L883.18-12.85Q884.51-14.32 884.51-16.52L884.51-16.52L884.51-33.18L884.51-33.18Q884.51-35.53 883.06-36.90L883.06-36.90L883.06-36.90Q881.62-38.28 879.41-38.28L879.41-38.28L853.21-38.28L853.21-49.62L879.41-49.62L879.41-49.62Q881.89-49.62 884.76-48.74L884.76-48.74L884.76-48.74Q887.63-47.87 890.09-45.92L890.09-45.92L890.09-45.92Q892.54-43.97 894.19-40.83L894.19-40.83L894.19-40.83Q895.85-37.68 895.85-33.18L895.85-33.18ZM927.84-11.93L927.84 0L922.51 0L922.51 0Q919.94 0 917.03-0.87L917.03-0.87L917.03-0.87Q914.11-1.74 911.59-3.74L911.59-3.74L911.59-3.74Q909.06-5.74 907.41-8.93L907.41-8.93L907.41-8.93Q905.76-12.12 905.76-16.75L905.76-16.75L905.76-70.59L917.69-70.59L917.69-16.75L917.69-16.75Q917.69-14.55 919.07-13.24L919.07-13.24L919.07-13.24Q920.45-11.93 922.51-11.93L922.51-11.93L927.84-11.93Z" fill="url(#editing-gradient-gradient)"></path>
    </g>
  </g>
  <style>
    text {
      font-size: 64px;
      font-family: Arial Black;
      dominant-baseline: central;
      text-anchor: middle;
    }
  </style>
</svg>